<svg width="27" height="24" viewBox="0 0 27 24" fill="none" xmlns="http://www.w3.org/2000/svg">
<path d="M21.6 16H18.9V18.6667H21.6M21.6 10.6667H18.9V13.3333H21.6M24.3 21.3333H13.5V18.6667H16.2V16H13.5V13.3333H16.2V10.6667H13.5V8H24.3M10.8 5.33333H8.1V2.66667H10.8M10.8 10.6667H8.1V8H10.8M10.8 16H8.1V13.3333H10.8M10.8 21.3333H8.1V18.6667H10.8M5.4 5.33333H2.7V2.66667H5.4M5.4 10.6667H2.7V8H5.4M5.4 16H2.7V13.3333H5.4M5.4 21.3333H2.7V18.6667H5.4M13.5 5.33333V0H0V24H27V5.33333H13.5Z" fill="#1E1E1E"/>
</svg>
